{
	"asset":{
		"generator":"Khronos glTF Blender I/O v4.1.63",
		"version":"2.0"
	},
	"scene":0,
	"scenes":[
		{
			"name":"Scene",
			"nodes":[
				0,
				1,
				2,
				3,
				4,
				5,
				6,
				7,
				8,
				9,
				10,
				11
			]
		}
	],
	"nodes":[
		{
			"mesh":0,
			"name":"Plytka_drukowana",
			"scale":[
				8.5,
				0.1499999761581421,
				5.599999904632568
			],
			"translation":[
				-1.7586877346038818,
				0,
				0
			]
		},
		{
			"mesh":1,
			"name":"USB2.0",
			"scale":[
				1.7775743007659912,
				1.600000023841858,
				1.3697500228881836
			],
			"translation":[
				5.532427787780762,
				1.7541879415512085,
				3.7961394786834717
			]
		},
		{
			"mesh":2,
			"name":"USB3.0",
			"scale":[
				1.7775743007659912,
				1.600000023841858,
				1.3697500228881836
			],
			"translation":[
				5.532427787780762,
				1.7541879415512085,
				0.2062222957611084
			]
		},
		{
			"mesh":3,
			"name":"Kondensator_odsprzegajacy",
			"scale":[
				0.4534866213798523,
				0.1499999761581421,
				0.7575001120567322
			],
			"translation":[
				3.223696708679199,
				0.2987549304962158,
				-1.0690100193023682
			]
		},
		{
			"mesh":4,
			"name":"Kontroler_USB",
			"scale":[
				0.7841424942016602,
				0.11000001430511475,
				0.805834174156189
			],
			"translation":[
				1.6238206624984741,
				0.2499224692583084,
				0.7897799015045166
			]
		},
		{
			"mesh":5,
			"name":"Kontroler_gigabit",
			"scale":[
				0.5627932548522949,
				0.11000001430511475,
				0.5783617496490479
			],
			"translation":[
				1.43764066696167,
				0.2499224692583084,
				-1.9797084331512451
			]
		},
		{
			"mesh":6,
			"name":"Piny_PoE",
			"scale":[
				0.5005781650543213,
				0.19999998807907104,
				0.5005781650543213
			],
			"translation":[
				2.0072479248046875,
				0.343366801738739,
				-3.653336524963379
			]
		},
		{
			"mesh":7,
			"name":"Interfejs_kamery",
			"scale":[
				0.3103333115577698,
				0.550000011920929,
				2.2188196182250977
			],
			"translation":[
				-0.9847038388252258,
				0.6854525208473206,
				3.301640272140503
			]
		},
		{
			"mesh":8,
			"name":"DRAM",
			"scale":[
				1.1521750688552856,
				0.14070743322372437,
				1.5107581615447998
			],
			"translation":[
				-1.3151124715805054,
				0.28327640891075134,
				-0.8937164545059204
			]
		},
		{
			"mesh":9,
			"name":"Piny_GPIO_U2C_SPI_UART",
			"scale":[
				0.5005781650543213,
				0.19999998807907104,
				0.5005781650543213
			],
			"translation":[
				0.8141712546348572,
				0.343366801738739,
				-4.874136924743652
			]
		},
		{
			"mesh":10,
			"name":"Wi-Fi_Bluetooth",
			"scale":[
				1.0578093528747559,
				0.1621740311384201,
				1.3265862464904785
			],
			"translation":[
				-7.862929344177246,
				0.3101838231086731,
				-2.898301124572754
			]
		},
		{
			"mesh":11,
			"name":"GPU_CPU",
			"scale":[
				1.5103574991226196,
				0.24000000953674316,
				1.5048260688781738
			],
			"translation":[
				-4.418467998504639,
				0.38770103454589844,
				-0.8879687786102295
			]
		}
	],
	"meshes":[
		{
			"name":"Cube.001",
			"primitives":[
				{
					"attributes":{
						"POSITION":0,
						"NORMAL":1,
						"TEXCOORD_0":2
					},
					"indices":3
				}
			]
		},
		{
			"name":"Cube.002",
			"primitives":[
				{
					"attributes":{
						"POSITION":4,
						"NORMAL":5,
						"TEXCOORD_0":6
					},
					"indices":7
				}
			]
		},
		{
			"name":"Cube.003",
			"primitives":[
				{
					"attributes":{
						"POSITION":8,
						"NORMAL":9,
						"TEXCOORD_0":10
					},
					"indices":7
				}
			]
		},
		{
			"name":"Cube.004",
			"primitives":[
				{
					"attributes":{
						"POSITION":11,
						"NORMAL":12,
						"TEXCOORD_0":13
					},
					"indices":14
				}
			]
		},
		{
			"name":"Cube.005",
			"primitives":[
				{
					"attributes":{
						"POSITION":15,
						"NORMAL":16,
						"TEXCOORD_0":17
					},
					"indices":18
				}
			]
		},
		{
			"name":"Cube.006",
			"primitives":[
				{
					"attributes":{
						"POSITION":19,
						"NORMAL":20,
						"TEXCOORD_0":21
					},
					"indices":18
				}
			]
		},
		{
			"name":"Cube.007",
			"primitives":[
				{
					"attributes":{
						"POSITION":22,
						"NORMAL":23,
						"TEXCOORD_0":24
					},
					"indices":25
				}
			]
		},
		{
			"name":"Cube.008",
			"primitives":[
				{
					"attributes":{
						"POSITION":26,
						"NORMAL":27,
						"TEXCOORD_0":28
					},
					"indices":29
				}
			]
		},
		{
			"name":"Cube.009",
			"primitives":[
				{
					"attributes":{
						"POSITION":30,
						"NORMAL":31,
						"TEXCOORD_0":32
					},
					"indices":33
				}
			]
		},
		{
			"name":"Cube.010",
			"primitives":[
				{
					"attributes":{
						"POSITION":34,
						"NORMAL":35,
						"TEXCOORD_0":36
					},
					"indices":25
				}
			]
		},
		{
			"name":"Cube.011",
			"primitives":[
				{
					"attributes":{
						"POSITION":37,
						"NORMAL":38,
						"TEXCOORD_0":39
					},
					"indices":33
				}
			]
		},
		{
			"name":"Cube.012",
			"primitives":[
				{
					"attributes":{
						"POSITION":40,
						"NORMAL":41,
						"TEXCOORD_0":42
					},
					"indices":43
				}
			]
		}
	],
	"accessors":[
		{
			"bufferView":0,
			"componentType":5126,
			"count":1496,
			"max":[
				1.0000001192092896,
				1.0000001192092896,
				1.0000001192092896
			],
			"min":[
				-1.0000001192092896,
				-1.0000001192092896,
				-1.0000001192092896
			],
			"type":"VEC3"
		},
		{
			"bufferView":1,
			"componentType":5126,
			"count":1496,
			"type":"VEC3"
		},
		{
			"bufferView":2,
			"componentType":5126,
			"count":1496,
			"type":"VEC2"
		},
		{
			"bufferView":3,
			"componentType":5123,
			"count":2484,
			"type":"SCALAR"
		},
		{
			"bufferView":4,
			"componentType":5126,
			"count":170,
			"max":[
				1,
				1,
				1.093090534210205
			],
			"min":[
				-1,
				-1,
				-1.093090534210205
			],
			"type":"VEC3"
		},
		{
			"bufferView":5,
			"componentType":5126,
			"count":170,
			"type":"VEC3"
		},
		{
			"bufferView":6,
			"componentType":5126,
			"count":170,
			"type":"VEC2"
		},
		{
			"bufferView":7,
			"componentType":5123,
			"count":360,
			"type":"SCALAR"
		},
		{
			"bufferView":8,
			"componentType":5126,
			"count":170,
			"max":[
				1,
				1,
				1.093090534210205
			],
			"min":[
				-1,
				-1,
				-1.093090534210205
			],
			"type":"VEC3"
		},
		{
			"bufferView":9,
			"componentType":5126,
			"count":170,
			"type":"VEC3"
		},
		{
			"bufferView":10,
			"componentType":5126,
			"count":170,
			"type":"VEC2"
		},
		{
			"bufferView":11,
			"componentType":5126,
			"count":200,
			"max":[
				1,
				1,
				1
			],
			"min":[
				-1,
				-1,
				-1
			],
			"type":"VEC3"
		},
		{
			"bufferView":12,
			"componentType":5126,
			"count":200,
			"type":"VEC3"
		},
		{
			"bufferView":13,
			"componentType":5126,
			"count":200,
			"type":"VEC2"
		},
		{
			"bufferView":14,
			"componentType":5123,
			"count":420,
			"type":"SCALAR"
		},
		{
			"bufferView":15,
			"componentType":5126,
			"count":86,
			"max":[
				1.100000023841858,
				0.1571250557899475,
				1.100000023841858
			],
			"min":[
				-1.100000023841858,
				-1,
				-1.100000023841858
			],
			"type":"VEC3"
		},
		{
			"bufferView":16,
			"componentType":5126,
			"count":86,
			"type":"VEC3"
		},
		{
			"bufferView":17,
			"componentType":5126,
			"count":86,
			"type":"VEC2"
		},
		{
			"bufferView":18,
			"componentType":5123,
			"count":156,
			"type":"SCALAR"
		},
		{
			"bufferView":19,
			"componentType":5126,
			"count":86,
			"max":[
				1.2100001573562622,
				0.1571250557899475,
				1.2100000381469727
			],
			"min":[
				-1.2100001573562622,
				-1,
				-1.2100000381469727
			],
			"type":"VEC3"
		},
		{
			"bufferView":20,
			"componentType":5126,
			"count":86,
			"type":"VEC3"
		},
		{
			"bufferView":21,
			"componentType":5126,
			"count":86,
			"type":"VEC2"
		},
		{
			"bufferView":22,
			"componentType":5126,
			"count":138,
			"max":[
				1,
				5.119312286376953,
				1
			],
			"min":[
				-1,
				-1,
				-1
			],
			"type":"VEC3"
		},
		{
			"bufferView":23,
			"componentType":5126,
			"count":138,
			"type":"VEC3"
		},
		{
			"bufferView":24,
			"componentType":5126,
			"count":138,
			"type":"VEC2"
		},
		{
			"bufferView":25,
			"componentType":5123,
			"count":288,
			"type":"SCALAR"
		},
		{
			"bufferView":26,
			"componentType":5126,
			"count":272,
			"max":[
				2.1742074489593506,
				1,
				1
			],
			"min":[
				-1.5032315254211426,
				-1,
				-1
			],
			"type":"VEC3"
		},
		{
			"bufferView":27,
			"componentType":5126,
			"count":272,
			"type":"VEC3"
		},
		{
			"bufferView":28,
			"componentType":5126,
			"count":272,
			"type":"VEC2"
		},
		{
			"bufferView":29,
			"componentType":5123,
			"count":612,
			"type":"SCALAR"
		},
		{
			"bufferView":30,
			"componentType":5126,
			"count":24,
			"max":[
				1,
				1,
				1
			],
			"min":[
				-1,
				-1,
				-1
			],
			"type":"VEC3"
		},
		{
			"bufferView":31,
			"componentType":5126,
			"count":24,
			"type":"VEC3"
		},
		{
			"bufferView":32,
			"componentType":5126,
			"count":24,
			"type":"VEC2"
		},
		{
			"bufferView":33,
			"componentType":5123,
			"count":36,
			"type":"SCALAR"
		},
		{
			"bufferView":34,
			"componentType":5126,
			"count":138,
			"max":[
				0.9211485981941223,
				5.119312286376953,
				1
			],
			"min":[
				-0.9211485981941223,
				-1,
				-1
			],
			"type":"VEC3"
		},
		{
			"bufferView":35,
			"componentType":5126,
			"count":138,
			"type":"VEC3"
		},
		{
			"bufferView":36,
			"componentType":5126,
			"count":138,
			"type":"VEC2"
		},
		{
			"bufferView":37,
			"componentType":5126,
			"count":24,
			"max":[
				1,
				1,
				1
			],
			"min":[
				-1,
				-1,
				-1
			],
			"type":"VEC3"
		},
		{
			"bufferView":38,
			"componentType":5126,
			"count":24,
			"type":"VEC3"
		},
		{
			"bufferView":39,
			"componentType":5126,
			"count":24,
			"type":"VEC2"
		},
		{
			"bufferView":40,
			"componentType":5126,
			"count":119,
			"max":[
				1,
				0.9999999403953552,
				1
			],
			"min":[
				-1,
				-1,
				-1
			],
			"type":"VEC3"
		},
		{
			"bufferView":41,
			"componentType":5126,
			"count":119,
			"type":"VEC3"
		},
		{
			"bufferView":42,
			"componentType":5126,
			"count":119,
			"type":"VEC2"
		},
		{
			"bufferView":43,
			"componentType":5123,
			"count":288,
			"type":"SCALAR"
		}
	],
	"bufferViews":[
		{
			"buffer":0,
			"byteLength":17952,
			"byteOffset":0,
			"target":34962
		},
		{
			"buffer":0,
			"byteLength":17952,
			"byteOffset":17952,
			"target":34962
		},
		{
			"buffer":0,
			"byteLength":11968,
			"byteOffset":35904,
			"target":34962
		},
		{
			"buffer":0,
			"byteLength":4968,
			"byteOffset":47872,
			"target":34963
		},
		{
			"buffer":0,
			"byteLength":2040,
			"byteOffset":52840,
			"target":34962
		},
		{
			"buffer":0,
			"byteLength":2040,
			"byteOffset":54880,
			"target":34962
		},
		{
			"buffer":0,
			"byteLength":1360,
			"byteOffset":56920,
			"target":34962
		},
		{
			"buffer":0,
			"byteLength":720,
			"byteOffset":58280,
			"target":34963
		},
		{
			"buffer":0,
			"byteLength":2040,
			"byteOffset":59000,
			"target":34962
		},
		{
			"buffer":0,
			"byteLength":2040,
			"byteOffset":61040,
			"target":34962
		},
		{
			"buffer":0,
			"byteLength":1360,
			"byteOffset":63080,
			"target":34962
		},
		{
			"buffer":0,
			"byteLength":2400,
			"byteOffset":64440,
			"target":34962
		},
		{
			"buffer":0,
			"byteLength":2400,
			"byteOffset":66840,
			"target":34962
		},
		{
			"buffer":0,
			"byteLength":1600,
			"byteOffset":69240,
			"target":34962
		},
		{
			"buffer":0,
			"byteLength":840,
			"byteOffset":70840,
			"target":34963
		},
		{
			"buffer":0,
			"byteLength":1032,
			"byteOffset":71680,
			"target":34962
		},
		{
			"buffer":0,
			"byteLength":1032,
			"byteOffset":72712,
			"target":34962
		},
		{
			"buffer":0,
			"byteLength":688,
			"byteOffset":73744,
			"target":34962
		},
		{
			"buffer":0,
			"byteLength":312,
			"byteOffset":74432,
			"target":34963
		},
		{
			"buffer":0,
			"byteLength":1032,
			"byteOffset":74744,
			"target":34962
		},
		{
			"buffer":0,
			"byteLength":1032,
			"byteOffset":75776,
			"target":34962
		},
		{
			"buffer":0,
			"byteLength":688,
			"byteOffset":76808,
			"target":34962
		},
		{
			"buffer":0,
			"byteLength":1656,
			"byteOffset":77496,
			"target":34962
		},
		{
			"buffer":0,
			"byteLength":1656,
			"byteOffset":79152,
			"target":34962
		},
		{
			"buffer":0,
			"byteLength":1104,
			"byteOffset":80808,
			"target":34962
		},
		{
			"buffer":0,
			"byteLength":576,
			"byteOffset":81912,
			"target":34963
		},
		{
			"buffer":0,
			"byteLength":3264,
			"byteOffset":82488,
			"target":34962
		},
		{
			"buffer":0,
			"byteLength":3264,
			"byteOffset":85752,
			"target":34962
		},
		{
			"buffer":0,
			"byteLength":2176,
			"byteOffset":89016,
			"target":34962
		},
		{
			"buffer":0,
			"byteLength":1224,
			"byteOffset":91192,
			"target":34963
		},
		{
			"buffer":0,
			"byteLength":288,
			"byteOffset":92416,
			"target":34962
		},
		{
			"buffer":0,
			"byteLength":288,
			"byteOffset":92704,
			"target":34962
		},
		{
			"buffer":0,
			"byteLength":192,
			"byteOffset":92992,
			"target":34962
		},
		{
			"buffer":0,
			"byteLength":72,
			"byteOffset":93184,
			"target":34963
		},
		{
			"buffer":0,
			"byteLength":1656,
			"byteOffset":93256,
			"target":34962
		},
		{
			"buffer":0,
			"byteLength":1656,
			"byteOffset":94912,
			"target":34962
		},
		{
			"buffer":0,
			"byteLength":1104,
			"byteOffset":96568,
			"target":34962
		},
		{
			"buffer":0,
			"byteLength":288,
			"byteOffset":97672,
			"target":34962
		},
		{
			"buffer":0,
			"byteLength":288,
			"byteOffset":97960,
			"target":34962
		},
		{
			"buffer":0,
			"byteLength":192,
			"byteOffset":98248,
			"target":34962
		},
		{
			"buffer":0,
			"byteLength":1428,
			"byteOffset":98440,
			"target":34962
		},
		{
			"buffer":0,
			"byteLength":1428,
			"byteOffset":99868,
			"target":34962
		},
		{
			"buffer":0,
			"byteLength":952,
			"byteOffset":101296,
			"target":34962
		},
		{
			"buffer":0,
			"byteLength":576,
			"byteOffset":102248,
			"target":34963
		}
	],
	"buffers":[
		{
			"byteLength":102824,
			"uri":"raspberry_pi.bin"
		}
	]
}
