{
	"asset":{
		"generator":"Khronos glTF Blender I/O v4.1.63",
		"version":"2.0"
	},
	"scene":0,
	"scenes":[
		{
			"name":"Scene",
			"nodes":[
				0,
				1,
				2,
				3,
				4
			]
		}
	],
	"nodes":[
		{
			"mesh":0,
			"name":"Podstawa",
			"scale":[
				6.740140914916992,
				0.760287344455719,
				3.4317755699157715
			]
		},
		{
			"mesh":1,
			"name":"Bebech_kwadratowy",
			"scale":[
				1,
				0.2580806612968445,
				1
			],
			"translation":[
				-4.6837639808654785,
				0.3727971315383911,
				1.6607768535614014
			]
		},
		{
			"mesh":2,
			"name":"Bebech_okragly",
			"scale":[
				1,
				0.17327535152435303,
				1
			],
			"translation":[
				0.03730266913771629,
				0.09252198040485382,
				-0.06464772671461105
			]
		},
		{
			"mesh":3,
			"name":"Bebech_sferyczny",
			"scale":[
				1,
				0.28310418128967285,
				1
			],
			"translation":[
				3.6014597415924072,
				0.3878423273563385,
				1.4368517398834229
			]
		},
		{
			"mesh":4,
			"name":"Ekran",
			"scale":[
				6.629746913909912,
				0.21444833278656006,
				3.2899858951568604
			],
			"translation":[
				0,
				0.9225483536720276,
				0
			]
		}
	],
	"animations":[
		{
			"channels":[
				{
					"sampler":0,
					"target":{
						"node":0,
						"path":"translation"
					}
				},
				{
					"sampler":1,
					"target":{
						"node":0,
						"path":"rotation"
					}
				},
				{
					"sampler":2,
					"target":{
						"node":0,
						"path":"scale"
					}
				},
				{
					"sampler":3,
					"target":{
						"node":1,
						"path":"translation"
					}
				},
				{
					"sampler":4,
					"target":{
						"node":1,
						"path":"rotation"
					}
				},
				{
					"sampler":5,
					"target":{
						"node":1,
						"path":"scale"
					}
				},
				{
					"sampler":6,
					"target":{
						"node":2,
						"path":"translation"
					}
				},
				{
					"sampler":7,
					"target":{
						"node":2,
						"path":"rotation"
					}
				},
				{
					"sampler":8,
					"target":{
						"node":2,
						"path":"scale"
					}
				},
				{
					"sampler":9,
					"target":{
						"node":3,
						"path":"translation"
					}
				},
				{
					"sampler":10,
					"target":{
						"node":3,
						"path":"rotation"
					}
				},
				{
					"sampler":11,
					"target":{
						"node":3,
						"path":"scale"
					}
				},
				{
					"sampler":12,
					"target":{
						"node":4,
						"path":"translation"
					}
				},
				{
					"sampler":13,
					"target":{
						"node":4,
						"path":"rotation"
					}
				},
				{
					"sampler":14,
					"target":{
						"node":4,
						"path":"scale"
					}
				}
			],
			"name":"Animation",
			"samplers":[
				{
					"input":19,
					"interpolation":"STEP",
					"output":20
				},
				{
					"input":19,
					"interpolation":"STEP",
					"output":21
				},
				{
					"input":19,
					"interpolation":"STEP",
					"output":22
				},
				{
					"input":23,
					"interpolation":"LINEAR",
					"output":24
				},
				{
					"input":19,
					"interpolation":"STEP",
					"output":25
				},
				{
					"input":19,
					"interpolation":"STEP",
					"output":26
				},
				{
					"input":23,
					"interpolation":"LINEAR",
					"output":27
				},
				{
					"input":19,
					"interpolation":"STEP",
					"output":28
				},
				{
					"input":19,
					"interpolation":"STEP",
					"output":29
				},
				{
					"input":23,
					"interpolation":"LINEAR",
					"output":30
				},
				{
					"input":19,
					"interpolation":"STEP",
					"output":31
				},
				{
					"input":19,
					"interpolation":"STEP",
					"output":32
				},
				{
					"input":23,
					"interpolation":"LINEAR",
					"output":33
				},
				{
					"input":19,
					"interpolation":"STEP",
					"output":34
				},
				{
					"input":19,
					"interpolation":"STEP",
					"output":35
				}
			]
		}
	],
	"materials":[
		{
			"doubleSided":true,
			"name":"Material.002",
			"pbrMetallicRoughness":{
				"baseColorFactor":[
					0.5179057121276855,
					0.800536572933197,
					0.0036282504443079233,
					1
				],
				"metallicFactor":0,
				"roughnessFactor":0.5
			}
		},
		{
			"doubleSided":true,
			"name":"Material.003",
			"pbrMetallicRoughness":{}
		},
		{
			"doubleSided":true,
			"name":"Material.004",
			"pbrMetallicRoughness":{
				"baseColorFactor":[
					0.8001892566680908,
					0.004204555880278349,
					0,
					1
				],
				"metallicFactor":0.8235294222831726,
				"roughnessFactor":0.2450980246067047
			}
		},
		{
			"doubleSided":true,
			"name":"Material.005",
			"pbrMetallicRoughness":{
				"metallicFactor":0,
				"roughnessFactor":0.13725489377975464
			}
		},
		{
			"doubleSided":true,
			"name":"Material.001",
			"pbrMetallicRoughness":{}
		}
	],
	"meshes":[
		{
			"name":"Cube.001",
			"primitives":[
				{
					"attributes":{
						"POSITION":0,
						"NORMAL":1,
						"TEXCOORD_0":2
					},
					"indices":3,
					"material":0
				}
			]
		},
		{
			"name":"Cube.002",
			"primitives":[
				{
					"attributes":{
						"POSITION":4,
						"NORMAL":5,
						"TEXCOORD_0":6
					},
					"indices":7,
					"material":1
				}
			]
		},
		{
			"name":"Cylinder",
			"primitives":[
				{
					"attributes":{
						"POSITION":8,
						"NORMAL":9,
						"TEXCOORD_0":10
					},
					"indices":11,
					"material":2
				}
			]
		},
		{
			"name":"Sphere",
			"primitives":[
				{
					"attributes":{
						"POSITION":12,
						"NORMAL":13,
						"TEXCOORD_0":14
					},
					"indices":15,
					"material":3
				}
			]
		},
		{
			"name":"Cube.003",
			"primitives":[
				{
					"attributes":{
						"POSITION":16,
						"NORMAL":17,
						"TEXCOORD_0":18
					},
					"indices":7,
					"material":4
				}
			]
		}
	],
	"accessors":[
		{
			"bufferView":0,
			"componentType":5126,
			"count":480,
			"max":[
				1,
				1,
				1
			],
			"min":[
				-1,
				-1,
				-1
			],
			"type":"VEC3"
		},
		{
			"bufferView":1,
			"componentType":5126,
			"count":480,
			"type":"VEC3"
		},
		{
			"bufferView":2,
			"componentType":5126,
			"count":480,
			"type":"VEC2"
		},
		{
			"bufferView":3,
			"componentType":5123,
			"count":732,
			"type":"SCALAR"
		},
		{
			"bufferView":4,
			"componentType":5126,
			"count":24,
			"max":[
				1,
				1,
				1
			],
			"min":[
				-1,
				-1,
				-1
			],
			"type":"VEC3"
		},
		{
			"bufferView":5,
			"componentType":5126,
			"count":24,
			"type":"VEC3"
		},
		{
			"bufferView":6,
			"componentType":5126,
			"count":24,
			"type":"VEC2"
		},
		{
			"bufferView":7,
			"componentType":5123,
			"count":36,
			"type":"SCALAR"
		},
		{
			"bufferView":8,
			"componentType":5126,
			"count":192,
			"max":[
				1,
				1,
				1
			],
			"min":[
				-1,
				-1,
				-1
			],
			"type":"VEC3"
		},
		{
			"bufferView":9,
			"componentType":5126,
			"count":192,
			"type":"VEC3"
		},
		{
			"bufferView":10,
			"componentType":5126,
			"count":192,
			"type":"VEC2"
		},
		{
			"bufferView":11,
			"componentType":5123,
			"count":372,
			"type":"SCALAR"
		},
		{
			"bufferView":12,
			"componentType":5126,
			"count":1984,
			"max":[
				0.9999997019767761,
				1,
				0.9999993443489075
			],
			"min":[
				-0.9999990463256836,
				-1,
				-1
			],
			"type":"VEC3"
		},
		{
			"bufferView":13,
			"componentType":5126,
			"count":1984,
			"type":"VEC3"
		},
		{
			"bufferView":14,
			"componentType":5126,
			"count":1984,
			"type":"VEC2"
		},
		{
			"bufferView":15,
			"componentType":5123,
			"count":2880,
			"type":"SCALAR"
		},
		{
			"bufferView":16,
			"componentType":5126,
			"count":24,
			"max":[
				1,
				1,
				1
			],
			"min":[
				-1,
				-1,
				-1
			],
			"type":"VEC3"
		},
		{
			"bufferView":17,
			"componentType":5126,
			"count":24,
			"type":"VEC3"
		},
		{
			"bufferView":18,
			"componentType":5126,
			"count":24,
			"type":"VEC2"
		},
		{
			"bufferView":19,
			"componentType":5126,
			"count":2,
			"max":[
				4.125
			],
			"min":[
				0.041666666666666664
			],
			"type":"SCALAR"
		},
		{
			"bufferView":20,
			"componentType":5126,
			"count":2,
			"type":"VEC3"
		},
		{
			"bufferView":21,
			"componentType":5126,
			"count":2,
			"type":"VEC4"
		},
		{
			"bufferView":22,
			"componentType":5126,
			"count":2,
			"type":"VEC3"
		},
		{
			"bufferView":23,
			"componentType":5126,
			"count":99,
			"max":[
				4.125
			],
			"min":[
				0.041666666666666664
			],
			"type":"SCALAR"
		},
		{
			"bufferView":24,
			"componentType":5126,
			"count":99,
			"type":"VEC3"
		},
		{
			"bufferView":25,
			"componentType":5126,
			"count":2,
			"type":"VEC4"
		},
		{
			"bufferView":26,
			"componentType":5126,
			"count":2,
			"type":"VEC3"
		},
		{
			"bufferView":27,
			"componentType":5126,
			"count":99,
			"type":"VEC3"
		},
		{
			"bufferView":28,
			"componentType":5126,
			"count":2,
			"type":"VEC4"
		},
		{
			"bufferView":29,
			"componentType":5126,
			"count":2,
			"type":"VEC3"
		},
		{
			"bufferView":30,
			"componentType":5126,
			"count":99,
			"type":"VEC3"
		},
		{
			"bufferView":31,
			"componentType":5126,
			"count":2,
			"type":"VEC4"
		},
		{
			"bufferView":32,
			"componentType":5126,
			"count":2,
			"type":"VEC3"
		},
		{
			"bufferView":33,
			"componentType":5126,
			"count":99,
			"type":"VEC3"
		},
		{
			"bufferView":34,
			"componentType":5126,
			"count":2,
			"type":"VEC4"
		},
		{
			"bufferView":35,
			"componentType":5126,
			"count":2,
			"type":"VEC3"
		}
	],
	"bufferViews":[
		{
			"buffer":0,
			"byteLength":5760,
			"byteOffset":0,
			"target":34962
		},
		{
			"buffer":0,
			"byteLength":5760,
			"byteOffset":5760,
			"target":34962
		},
		{
			"buffer":0,
			"byteLength":3840,
			"byteOffset":11520,
			"target":34962
		},
		{
			"buffer":0,
			"byteLength":1464,
			"byteOffset":15360,
			"target":34963
		},
		{
			"buffer":0,
			"byteLength":288,
			"byteOffset":16824,
			"target":34962
		},
		{
			"buffer":0,
			"byteLength":288,
			"byteOffset":17112,
			"target":34962
		},
		{
			"buffer":0,
			"byteLength":192,
			"byteOffset":17400,
			"target":34962
		},
		{
			"buffer":0,
			"byteLength":72,
			"byteOffset":17592,
			"target":34963
		},
		{
			"buffer":0,
			"byteLength":2304,
			"byteOffset":17664,
			"target":34962
		},
		{
			"buffer":0,
			"byteLength":2304,
			"byteOffset":19968,
			"target":34962
		},
		{
			"buffer":0,
			"byteLength":1536,
			"byteOffset":22272,
			"target":34962
		},
		{
			"buffer":0,
			"byteLength":744,
			"byteOffset":23808,
			"target":34963
		},
		{
			"buffer":0,
			"byteLength":23808,
			"byteOffset":24552,
			"target":34962
		},
		{
			"buffer":0,
			"byteLength":23808,
			"byteOffset":48360,
			"target":34962
		},
		{
			"buffer":0,
			"byteLength":15872,
			"byteOffset":72168,
			"target":34962
		},
		{
			"buffer":0,
			"byteLength":5760,
			"byteOffset":88040,
			"target":34963
		},
		{
			"buffer":0,
			"byteLength":288,
			"byteOffset":93800,
			"target":34962
		},
		{
			"buffer":0,
			"byteLength":288,
			"byteOffset":94088,
			"target":34962
		},
		{
			"buffer":0,
			"byteLength":192,
			"byteOffset":94376,
			"target":34962
		},
		{
			"buffer":0,
			"byteLength":8,
			"byteOffset":94568
		},
		{
			"buffer":0,
			"byteLength":24,
			"byteOffset":94576
		},
		{
			"buffer":0,
			"byteLength":32,
			"byteOffset":94600
		},
		{
			"buffer":0,
			"byteLength":24,
			"byteOffset":94632
		},
		{
			"buffer":0,
			"byteLength":396,
			"byteOffset":94656
		},
		{
			"buffer":0,
			"byteLength":1188,
			"byteOffset":95052
		},
		{
			"buffer":0,
			"byteLength":32,
			"byteOffset":96240
		},
		{
			"buffer":0,
			"byteLength":24,
			"byteOffset":96272
		},
		{
			"buffer":0,
			"byteLength":1188,
			"byteOffset":96296
		},
		{
			"buffer":0,
			"byteLength":32,
			"byteOffset":97484
		},
		{
			"buffer":0,
			"byteLength":24,
			"byteOffset":97516
		},
		{
			"buffer":0,
			"byteLength":1188,
			"byteOffset":97540
		},
		{
			"buffer":0,
			"byteLength":32,
			"byteOffset":98728
		},
		{
			"buffer":0,
			"byteLength":24,
			"byteOffset":98760
		},
		{
			"buffer":0,
			"byteLength":1188,
			"byteOffset":98784
		},
		{
			"buffer":0,
			"byteLength":32,
			"byteOffset":99972
		},
		{
			"buffer":0,
			"byteLength":24,
			"byteOffset":100004
		}
	],
	"buffers":[
		{
			"byteLength":100028,
			"uri":"telefon.bin"
		}
	]
}
