{
	"asset":{
		"generator":"Khronos glTF Blender I/O v4.1.63",
		"version":"2.0"
	},
	"scene":0,
	"scenes":[
		{
			"name":"Scene",
			"nodes":[
				0
			]
		}
	],
	"nodes":[
		{
			"mesh":0,
			"name":"Sphere"
		}
	],
	"meshes":[
		{
			"name":"Sphere",
			"primitives":[
				{
					"attributes":{
						"POSITION":0,
						"NORMAL":1,
						"TEXCOORD_0":2
					},
					"indices":3
				}
			]
		}
	],
	"accessors":[
		{
			"bufferView":0,
			"componentType":5126,
			"count":2031572,
			"max":[
				0.9872310161590576,
				0.9975767135620117,
				0.9872307181358337
			],
			"min":[
				-0.9872305393218994,
				-0.9975767135620117,
				-0.9872310161590576
			],
			"type":"VEC3"
		},
		{
			"bufferView":1,
			"componentType":5126,
			"count":2031572,
			"type":"VEC3"
		},
		{
			"bufferView":2,
			"componentType":5126,
			"count":2031572,
			"type":"VEC2"
		},
		{
			"bufferView":3,
			"componentType":5125,
			"count":3047424,
			"type":"SCALAR"
		}
	],
	"bufferViews":[
		{
			"buffer":0,
			"byteLength":24378864,
			"byteOffset":0,
			"target":34962
		},
		{
			"buffer":0,
			"byteLength":24378864,
			"byteOffset":24378864,
			"target":34962
		},
		{
			"buffer":0,
			"byteLength":16252576,
			"byteOffset":48757728,
			"target":34962
		},
		{
			"buffer":0,
			"byteLength":12189696,
			"byteOffset":65010304,
			"target":34963
		}
	],
	"buffers":[
		{
			"byteLength":77200000,
			"uri":"sfera_1015808.bin"
		}
	]
}
